<svg id="Layer_1" data-name="Layer 1" xmlns="http://www.w3.org/2000/svg" viewBox="0 0 258.37 309.82"><defs><style>.cls-1{opacity:0.8;}.cls-2{fill:#202020;}.cls-3{fill:#fff;}</style></defs><title>Artboard 1</title><g class="cls-1"><path class="cls-2" d="M131.62,225.45c-.83-1.66.83.4-.68-2.09a9.75,9.75,0,0,1,1.63,1.89,12,12,0,0,1,.93,1.48,12.37,12.37,0,0,1,.79,1.64c.22.67.37,1.37.54,2.06a16.06,16.06,0,0,0-1.47-2.34C132.86,227.37,132.33,226.64,131.62,225.45Z"/><path class="cls-2" d="M146.35,306.91c.16-1.46.33-1.09.45-.93a31,31,0,0,1-.41,3.78C146.19,310.19,146.29,308.27,146.35,306.91Z"/><path class="cls-2" d="M146.62,239.21a64.47,64.47,0,0,0-.72-7.1c.3-1.34,2,3.18,2.64,8.87a20.86,20.86,0,0,1,0,4.61c-.48,1.29-.9,3.29-1.43-1a11.63,11.63,0,0,1-.26-3.3C146.87,240,146.84,239,146.62,239.21Z"/><path class="cls-2" d="M152,288.42l-.18-.62c.15-1.46.5-.72.72-3l-.17-3.83c.2-2.31.28-.77.39-.61.32-8.53.86-11.45,1.05-20.6l.36,2.66c.26-2.41.28-6.26.49-8.11.23,6.06.7-2.6,1.09-2.73a41.81,41.81,0,0,1,.67,6.76c.16-2.64.53-5.46.79-7.68l-.07,3.4c.23.87.43-.69.46-3.24,0,3.11.38,1.29.47,2.31.2-5.51-.16-10.78-.51-16.94a24.27,24.27,0,0,1,.25-4.58c.5,2.57.89,4.65,1.21,6.48a40.85,40.85,0,0,1,.61,5c-.1,1.49-.1,4.21-.19,6.58s-.25,4.4-.53,4.53c0,1.95.13,4.3.29,5.78.33-1.41.23-6,.53-7.44.1,6.3,0,9.15-.15,15.53l.3-1.11c-.62,6.6-.64,17.81-1.13,21.7-.94,7-2.16,13.56-3,15.07.16-5.94-.79.19-1-.4,0-1.88.46-4.9.11-4.33-.63,3.21-.22,6-1,7.2,0-6-1.2-2.6-1.59-4.63-.48-1.67.66-9.8-.11-8.85-.25,4.43-.2.18-.43,1.18A35.29,35.29,0,0,1,152,288.42Z"/><path class="cls-2" d="M128.32,196.39c-1.86-1.77-1-1.36-1.48-1.94-.65-1.14,3.9,3,5.89,4.89,2,2.1,2,2.53,1.61,2.48C133.58,201.59,130.19,198.15,128.32,196.39Z"/><path class="cls-2" d="M154.69,221.85c-.37-1.16-.92-2.4-1.36-3.51s-.92-2-1.08-2.58c.25-.18.52-.4,1.95,2.08a33.81,33.81,0,0,1,3.51,10.34c.23,1.85-.07,1.74-.59.43S155.78,224.79,154.69,221.85Z"/><path class="cls-2" d="M56,166.23c-1.65.1-2.77.25-3.54.26a10.34,10.34,0,0,1-1.49-.05c-.56-.08-.51-.33-1.34-.39a18.47,18.47,0,0,0,2.68-.67c.09-.1-.44-.13-1-.16a3.62,3.62,0,0,1-1.2-.07s.1-.11.43-.21a9.39,9.39,0,0,1,1.73-.36c.87-.1,1.86-.23,2.82-.32a18.78,18.78,0,0,1,2.65.05c-.86.2-.6.31.2.38.4,0,.93.06,1.53.08l1.94.19c2.65.17,5.15.67,3,.75C63.68,166,59,165.87,56,166.23Z"/><path class="cls-2" d="M94.2,171c-2.21-1.25-3.32-2.18-2.19-1.8a15.4,15.4,0,0,1,2.7,1.15c1.17.65,2.49,1.42,3.44,2,2.13,1.44,3.15,2.48,1.59,1.71S96.3,172.14,94.2,171Z"/><path class="cls-2" d="M110.44,178.47c-1.14-1-.27-.47-.75-1a40.5,40.5,0,0,1,4.63,3.45l1.35,1.59C114,181.3,112.65,180.22,110.44,178.47Z"/><path class="cls-2" d="M87.17,166.55c-1.09-.68-1.71-1.07-1.08-1.08a34.76,34.76,0,0,1,7.71,3.6c1.79,1.09.38.54.49.87-1.07-.47-2.27-1.05-3.48-1.66S88.32,167.13,87.17,166.55Z"/><path class="cls-2" d="M104.28,173c-1-.84-2.16-1.51-3.22-2.2s-2.15-1.28-3.24-1.88A10.67,10.67,0,0,0,95.28,167l-3.53-2.11c4.29,2.08,1.77.27,3.16.63.58.26,1.24.55,1.93.89L99,167.58c1.54.8,3.11,1.82,4.68,2.82s3,2.13,4.36,3.12,2.42,2,3.26,2.81c-.52-.13.33.85.51,1.28s-.25.26-3.43-2A31.08,31.08,0,0,0,104.28,173Z"/><path class="cls-2" d="M137.66,194.31c-2.44-2.43-4.91-4.77-7.39-7.07-2-2.39,1.58-.16.49-1.48,1.47,1.23,3.77,3.36,5.72,5.16s3.57,3.28,3.75,3.06a66.77,66.77,0,0,1,5.18,5.19,54.25,54.25,0,0,1,4.33,5.5c1,2-1.46-.85-3.82-3.14s-4.56-4.17-2.52-1.52A37.29,37.29,0,0,0,137.66,194.31Z"/><path class="cls-2" d="M79.36,163.06c-1.08-.44-2.15-.74-3.08-1.07s-1.74-.62-2.34-.87c2,.41,3.23.41,5.26.83,1.23.48,2.88,1,4.2,1.61a9.08,9.08,0,0,1,2.44,1.35C85.74,165.16,82.31,164,79.36,163.06Z"/><path class="cls-2" d="M58.55,159.81c-1-.51,4.59-.4,7.39-.31a27.12,27.12,0,0,1,5.15.94c.74.37.34.5-1.92.29s-3.73-.44-5.34-.62l-2.48-.21A20.9,20.9,0,0,0,58.55,159.81Z"/><path class="cls-2" d="M20.9,177.61c-2.1,2.07-1.25.8-1.51.79a16.43,16.43,0,0,1,1.7-1.89l1-.91a11.48,11.48,0,0,1,1.29-1c1.53-1,1.72-.9,1.06-.23-.31.35-.9.78-1.53,1.41-.35.33-.64.6-1,.89S21.26,177.25,20.9,177.61Z"/><path class="cls-2" d="M31.29,162.59c-2,.83-1-.13,2-1.42l3-.75Z"/><path class="cls-2" d="M165.6,125.46c.65-.38.74-.35.81-.34-.57.28-1.16.61-1.75.92C164.58,126,165.3,125.67,165.6,125.46Z"/><path class="cls-2" d="M107,217.4a12.79,12.79,0,0,1-.38,3,17.61,17.61,0,0,0-.08,2.31c0,.54.05,1.17.11,1.93,0,.37.07.78.13,1.22s.1.73.16,1.14a26.73,26.73,0,0,0,1.3,4.16,3.79,3.79,0,0,0,1.58,1.93,8.57,8.57,0,0,0,3.48,1,18.7,18.7,0,0,0,4.81-.28c-.35.17,0,.27.89.21a13.9,13.9,0,0,0,1.78-.27c.75-.2,1.63-.44,2.62-.74a11.35,11.35,0,0,0,2.93-1.25c.39,0,.34.26.67.41s1.08.23,3-.55c-.41.35-.91.79-1.46,1.2l-1.68,1.14c-.54.37-1,.71-1.39,1s-.61.43-.63.53c1-.1,1.92-.84,3-1-1.13.4-2.29.93-3.57,1.28s-2.56.88-3.91,1.2a25.59,25.59,0,0,1-8.28.81c.33.1.66.17,1,.26a12.29,12.29,0,0,1-3.56-.47A8,8,0,0,1,106,235.6a8.26,8.26,0,0,1-1.94-3.28,18.77,18.77,0,0,1-.84-3.27,11,11,0,0,0-.47-2,2.94,2.94,0,0,1-.31-.91,17.18,17.18,0,0,1,.19-2.14,22.33,22.33,0,0,0-.22-5.45l-.51-1.8c-.23-.58-.42-1.17-.69-1.73.17-.09.51.91.8,1.53.13.31.21.53.26.47s.07-.4-.09-1.19a13.68,13.68,0,0,0-2.32-5.16c.5.45.52.29.31-.17a6.35,6.35,0,0,0-.49-.86l-.78-1-.41-.49-.42-.39a7.91,7.91,0,0,1-.6-.62c-.24-.31-.13-.38.72.05,2.55,1.83,2.89,2.49,2.87,2.13a2.25,2.25,0,0,0-.41-.86l-.71-1a13,13,0,0,1,2.4,3.25c-.11-.66.32-.29,1,.56a16.49,16.49,0,0,1,1,1.68c.32.66.63,1.38.92,2.1.11.82.29,1.61.35,2.44a7.05,7.05,0,0,0,.59,1.94c.12.11.2-.23.27-.68C106.62,217.92,106.62,216.55,107,217.4Z"/><path class="cls-2" d="M105.42,214.23l-.12-.29a15,15,0,0,0-.29-1.76C105.61,213.73,105.24,213.46,105.42,214.23Z"/><path class="cls-2" d="M95.37,205.75c0,.06.85.55.08.25l-1-.56C94.35,205.37,94.57,205.37,95.37,205.75Z"/><path class="cls-2" d="M97.07,155.37a25.63,25.63,0,0,1,5.33,2.82A38.88,38.88,0,0,1,97.07,155.37Z"/><path class="cls-2" d="M98.66,208.86l.43.47a9,9,0,0,0-1.35-1.12A2.53,2.53,0,0,1,98.66,208.86Z"/><path class="cls-2" d="M122.59,232.32a6.18,6.18,0,0,1-1.64.57A7.15,7.15,0,0,1,122.59,232.32Z"/><path class="cls-2" d="M136.45,224.53c.21-.16.64-.49.49-.31l-1,.82C135.88,225,136.1,224.87,136.45,224.53Z"/><path class="cls-2" d="M135.63,228l.48-.3c-.56.41-1.1.85-1.66,1.25A11.73,11.73,0,0,1,135.63,228Z"/><path class="cls-2" d="M150.79,206.33a46.84,46.84,0,0,1,.82-5c.21-1.09.33-2.27.48-3.43s.16-2.34.15-3.39c-.07.84.28,3.16.55-.76.27-3.42-.2-1.94.15-4.4-.17,3.64.16,5.43.36,5l.2-3.38c-.05,3,0,6.13-.33,9.21a34,34,0,0,1-2,8.79c-.82,2.11-1,1.9-1,1.57s0-.82-.7.57a7.36,7.36,0,0,0,.84-2.71A8.68,8.68,0,0,1,150.79,206.33Z"/><path class="cls-2" d="M115.2,242.28c2.28-.1,3.24,0,1.42.28a13.92,13.92,0,0,1-4.15-.08C112,242.33,112.79,242.38,115.2,242.28Z"/><path class="cls-2" d="M151.3,181c.12-1.16.46-3.53.54-2.57a19.45,19.45,0,0,1-.56,4.47A12.12,12.12,0,0,0,151.3,181Z"/><path class="cls-2" d="M206.1,136.53a32.63,32.63,0,0,1,5.69-1.78c2.67-.7,5.36-1.33,5.78-1.74-1.7.47.14.55-2.94,1.06,3.83-.94,7.8-.83,14.18-1.33.25.5,0,.79,2,1.34a25.34,25.34,0,0,0-6.94,1l1.41-.07c-5.57.59-8.41,1.06-11,2.06l.66,0c-2.35.27,0-.23-1.09-.28-1.5.41-4.21.75-4.75,1.11a70,70,0,0,0-10.35,1.83c4.06-1.2,4.07-1.51,4-1.8S202.35,137.38,206.1,136.53Z"/><path class="cls-2" d="M194.05,142.1a7.2,7.2,0,0,1-2.58,1.09c-1.13.33-1.32.24-.43-.2A23,23,0,0,1,194.05,142.1Z"/><polygon class="cls-2" points="230.91 132.57 229.76 132.55 230.76 132.43 230.91 132.57"/><polygon class="cls-2" points="231.22 134.78 229.86 134.78 230.63 134.74 231.22 134.78"/><path class="cls-2" d="M252.45,138.56c1.76,1.1-1-.2-.54.17C251.67,138.45,252.47,138.74,252.45,138.56Z"/><path class="cls-2" d="M246.64,137.68c.9.19.1-.25-.7-.63a34.22,34.22,0,0,0,4.05,1.4,13.09,13.09,0,0,1,2.17.56,19.89,19.89,0,0,1,3.47,2.6,9.32,9.32,0,0,1,2.26,3.12,6.21,6.21,0,0,1,.36,3.62,9.45,9.45,0,0,1-1.86,4c0,.18.37-.38.52-.57a34.49,34.49,0,0,1-3.65,3.23,21.57,21.57,0,0,1-5.95,3.11l1-.48a2.41,2.41,0,0,0,.39-.26c.08-.08-.15,0-.53.12s-.94.29-1.46.46-1.08.29-1.4.38a19.66,19.66,0,0,1-4.13,1.36c-.82.2-1.68.33-2.46.48l-2.1.26,2.22-.38c.72-.16,1.45-.3,2.17-.48.23-.31,2.45-1,.71-.86a15.29,15.29,0,0,1-3.26.57c.67-.2,1.65-.35,2.61-.57-.15-.32-2.49,0-5.3.21a22.19,22.19,0,0,0,5.77-1.49,13.66,13.66,0,0,0,1.71-.83c.52-.26,1-.56,1.5-.88l-1,.24-1,.18a5.76,5.76,0,0,0,1.17-.23l1.53-.53,1.48-.66c.45-.24.87-.46,1.22-.62a7,7,0,0,1,1.43-1.18,20.58,20.58,0,0,0,2.27-1.94,8.08,8.08,0,0,0,1.59-2.09,2.46,2.46,0,0,0,.27-.77c0-.21.08-.38,0-.48a1.5,1.5,0,0,0,.23-1.53c-.07-.16-.2-.32-.28-.51a7.11,7.11,0,0,0-.56-.69c-.19-.25-.52-.5-.79-.78s-.65-.56-1.08-.84v.06a32.93,32.93,0,0,0-4-2.38c-1.16-.61-2.13-1.08-3-1.52a24.81,24.81,0,0,0-6.77-2.24c2.13.12,2.3,0,2.56-.17s.62-.34,3.12.06c-.58-.3-1.19-.54-1.79-.81a11.31,11.31,0,0,1,2.41.63A24.22,24.22,0,0,0,246.64,137.68Z"/><path class="cls-2" d="M257.55,151.13a10.54,10.54,0,0,1-.61,1.14A10.54,10.54,0,0,0,257.55,151.13Z"/><polygon class="cls-2" points="254.29 155.27 253.58 156.01 252.81 156.7 253.58 156.01 254.29 155.27"/><path class="cls-2" d="M174.66,172.54l0-.15c.27-.4.51-.8.74-1.21l0,.13C175.17,171.73,174.9,172.1,174.66,172.54Z"/><path class="cls-2" d="M179.89,162.75c.22-.08-.06.31-.55.77C178.41,164.15,179.33,163.21,179.89,162.75Z"/><path class="cls-2" d="M230.44,162.11c-.6,0-1.2,0-1.81,0C229.24,162.13,229.84,162.14,230.44,162.11Z"/><path class="cls-2" d="M226.57,160.65a63.6,63.6,0,0,0,6.52.07A33,33,0,0,1,226.57,160.65Z"/><polygon class="cls-2" points="232.94 160.05 234.48 159.97 233.79 160.08 232.94 160.05"/><path class="cls-2" d="M206.15,157.67c-2.27-.83.38-.18,2.18.42C208.42,158.22,208,158.28,206.15,157.67Z"/><path class="cls-2" d="M216.82,159.33c1,.22,2,.42,3.05.59-.33,0-.66-.08-1-.14C218.2,159.63,217.5,159.51,216.82,159.33Z"/><path class="cls-2" d="M191.31,150.22a23.88,23.88,0,0,0-5,1.56,14.26,14.26,0,0,0-1.54.71,11.52,11.52,0,0,0-1.22.68c-.16.06,0-.13.26-.41s.7-.61,1-.89.63-.44.57-.48-.44.08-1.28.64a19.09,19.09,0,0,1,7.61-3,23.05,23.05,0,0,1,8.47.26c1.82.45,1.14.55-.76.46A36.65,36.65,0,0,0,191.31,150.22Z"/><path class="cls-2" d="M177.54,165.66c.24.07.08.22-.3.29s-.77.12,0,.21a7.5,7.5,0,0,1-4-.32,27.8,27.8,0,0,1-5.16-2.11c.41.07-.4-.55-1.16-1.28s-1.52-1.56-1.62-1.49a21.09,21.09,0,0,1-.88-2.65,3.32,3.32,0,0,1,0-1.94,10.13,10.13,0,0,0,1.25,2.21c.5.6.81.79.46-.11a9,9,0,0,0,2.07,2.48c.81.67,1.54,1,1.47.79a15.82,15.82,0,0,0,7.74,3.14c.11.05.08.28.07.46a.19.19,0,0,0,.13.21h.3l.05.08.15.23c.06.08,0,.06,0,.09s-.36-.56-.25-.4h0A.37.37,0,0,0,177.54,165.66Z"/><path class="cls-2" d="M242.5,154.89a1.3,1.3,0,0,1,.29.29c.07.08.15.15.16.22a.72.72,0,0,0,.09.2l0,.09s0,.05,0,0l.28-.4c.21-.27.41-.55.59-.83,0,0-.24.36-.74,1.05l-.34.49s0,0-.07,0h-.23a.24.24,0,0,0-.22.12,18.07,18.07,0,0,0-2.46-.91,23.2,23.2,0,0,1-2.39-.89c-.38-.25.48-.28.57-.43a6.17,6.17,0,0,1,2.36.3C241.25,154.44,242.08,154.75,242.5,154.89Z"/><path class="cls-2" d="M163,156.11l.16.55.2.55c-.1-.24-.25-.48-.33-.72Z"/><path class="cls-2" d="M219.5,146.34c-1-.36-1.26-.59-2.07-.91.65-.21,1-.27,5.13.57,1.23.35,3.62.55,4.4.89-.09.16.69.51-.46.49A27.17,27.17,0,0,1,219.5,146.34Z"/><path class="cls-2" d="M175.91,153.37c-.49.94-1.52,2.71-2.57,5-.26.58-.52,1.18-.79,1.77l-.39.91c-.06.11,0,.08,0,.1l.06,0,.1.07.11.08,0,0,5.43,4.49h0l0,0a1.68,1.68,0,0,1,.21.18l.1.11,0-.05a.61.61,0,0,1-.1-.14l0-.08a2.36,2.36,0,0,1-.2-.31,3.44,3.44,0,0,1-.3-.61l-.05-.15,0-.08-.06-.13c-.08-.17-.15-.34-.22-.52a7,7,0,0,1-.33-1c0-.17-.08-.33-.11-.49l0-.12v-.06h0c.66,2.6.18.72.33,1.3h0v0l0-.17c-.05-.23-.09-.45-.15-.71l-.11-.75-.09-.78c0-.52-.07-1.07-.07-1.59v-1a.85.85,0,0,0-.15-.22c-.15-.18-.12-.27,0-.33l.16-.08s0-.05,0,0c0,.28,0,.56,0,.86,0,.57,0,1.16,0,1.74a14.33,14.33,0,0,0,.17,1.66,6.94,6.94,0,0,0,.13.75l.06.33.05.17,0,.08v0h0c.29,1.17-.41-1.58-.33-1.3h0v.06a7.88,7.88,0,0,0,.53,1.8l.2.43a2.56,2.56,0,0,0,.09.26,4,4,0,0,0,.21.47,3,3,0,0,0,.28.44l.06.12a.44.44,0,0,0,.08.11s.11.12,0,0a2.16,2.16,0,0,0-.23-.22l-.09-.07h0l-6.43-5.32h0l-.05,0-.18-.06-.08,0s0-.08.06-.14l.1-.2c.28-.51.56-1.05.84-1.53.56-1,1.13-1.89,1.67-2.67a20.92,20.92,0,0,1,2.66-3.19Z"/><path class="cls-2" d="M131,78.05c0-.07-.05-.13.2,0s.75.42,1.11.67C131.52,78.31,131.24,78.21,131,78.05Z"/><path class="cls-2" d="M233,142.72c-2,0-3.84-.43-2-.64.91-.22,2.83-.27,4.21-.48a6.09,6.09,0,0,1,1.81,0c.29.09.29.25.08.41A12,12,0,0,1,233,142.72Z"/><path class="cls-2" d="M151.58,86.48c-.34-.51-.72-1-1.1-1.48C150.86,85.49,151.24,86,151.58,86.48Z"/><path class="cls-2" d="M163.16,99.48a26.15,26.15,0,0,1,1.3,2.43,24.45,24.45,0,0,1,1.55,4.21c1.05,3.89,0,1.51,0,2.06a52,52,0,0,0-1.6-5.07A34.78,34.78,0,0,1,163.16,99.48Z"/><path class="cls-2" d="M5.78,203.73a16.46,16.46,0,0,0,3.76,3.72,3.65,3.65,0,0,0,.92.49c1.24,1.09.5.95,2.87,2.35a40,40,0,0,0,10.57,3.92,31.77,31.77,0,0,0,8.68.84,18.52,18.52,0,0,1-2.37.07c-.91,0-1.58,0-1,.26.82.16,1.66.29,2.55.4s1.65.17,2.51.24a48.77,48.77,0,0,0,5.59.07c-3.39.18,1.8.28,1.91.33a60.26,60.26,0,0,0,10.65-1.1c3.53-.62,6.86-1.4,9.62-1.92-2,.53-5.15,1.18-8,1.71a61.47,61.47,0,0,0-6.2,1.25,19.89,19.89,0,0,0,4.84-.18c2.21-.24,4.58-.62,5.85-.76.06,0-2.31.41-3.44.62,1,.19-2.62,1.44,3.88.35A41.41,41.41,0,0,1,50.21,219a82.79,82.79,0,0,1-14.54,1.79c-1,0-2-.1-3-.18-.52,0-.95-.09-1.55-.15s-1.21-.14-1.8-.23a61.84,61.84,0,0,1-7-1.44,50.15,50.15,0,0,1-6.67-2.35,38,38,0,0,1-6-3.32c-.27-.1-.82-.38-.79-.24-.75-.67-1.7-1.59-2.86-2.8-.45-.52-.94-1.07-1.39-1.7a23.79,23.79,0,0,1-1.39-2A21,21,0,0,1,1,201.67,23.73,23.73,0,0,1,.17,192c.36-1.77.25-.6.18.63s0,2.55.21,1.1c.14.13.26-.88.52-2.14a24.69,24.69,0,0,1,1-3.74c0,2.79.42,3.59,1,4.31a11.61,11.61,0,0,0,.25,6.21A30.66,30.66,0,0,0,5.78,203.73Z"/><path class="cls-2" d="M94.09,73.67c.19-.12-.36,0-.68,0a47.87,47.87,0,0,0-7.13,2.93L86,76.53a31.47,31.47,0,0,0-7.42,4.25,21.54,21.54,0,0,0-3.07,3,13,13,0,0,0-2.4,4.3,11.54,11.54,0,0,0,0,7.21,13.48,13.48,0,0,0,3.37,5.38,18.78,18.78,0,0,0,11.73,5c1.25.28.53.29-.81.17-.67-.06-1.5-.18-2.31-.32s-1.62-.3-2.23-.42c.36.19,0,.19-.06.29s.42.26,2.46.61c-1.54-.22-2.36-.23-3.08-.36a10.91,10.91,0,0,1-2.66-.62,22.26,22.26,0,0,0,3.19,1.35,20.78,20.78,0,0,1-3-.91l-1.32-.54-1.17-.62a22.08,22.08,0,0,1-1.94-1.16c-.56-.32-1-.65-1.35-.84a10.65,10.65,0,0,0,1.77,1.54,11.36,11.36,0,0,0,1.73,1.1,16,16,0,0,0,1.76.88c.61.29,1.23.59,1.93.85a25.86,25.86,0,0,1-2.84-1.23c-.45-.24-.88-.51-1.32-.76a9,9,0,0,1-1.25-.83,17.11,17.11,0,0,1-4.27-4.26,14.2,14.2,0,0,1-2.46-6,13.46,13.46,0,0,1,.73-7.19A11.3,11.3,0,0,0,69,87.88a13,13,0,0,1,1.34-3.29,17.71,17.71,0,0,1,1.8-2.47,38.78,38.78,0,0,1,4.56-4.35c-.18.06-.36.11-.53.18a30.3,30.3,0,0,1,8.66-4.16,57.72,57.72,0,0,1,8.72-1.89A14.66,14.66,0,0,1,97,71.79c.51.08.48.24.18.44C96.52,72.6,94.82,73.2,94.09,73.67Z"/><path class="cls-2" d="M170.13,114.37A7,7,0,0,1,170,112a26.12,26.12,0,0,1,1.16,6.44C171.06,120.11,170.56,116.67,170.13,114.37Z"/><path class="cls-2" d="M164.6,99.87c-.7-1.56-.1-.49-.07-.55.61,1.06,1.51,3.71,1.07,3A22.25,22.25,0,0,1,164.6,99.87Z"/><path class="cls-3" d="M109,67.55l-1.11.06Z"/><path class="cls-2" d="M96.93,68.54c-.91-.12,2.46-.57,4.41-.59C100.24,68.14,98.79,68.33,96.93,68.54Z"/><path class="cls-3" d="M82.53,104.57l.27.06c.7.28,1.44.44,2.17.67l-.27,0A18.29,18.29,0,0,1,82.53,104.57Z"/><path class="cls-2" d="M71.16,82.23A22.48,22.48,0,0,1,74.67,79a22.66,22.66,0,0,0-3,2.87Z"/><path class="cls-2" d="M94.07,105.14c.62,0,.48.13-.61.27C92.53,105.39,92.94,105.24,94.07,105.14Z"/><path class="cls-2" d="M94.53,106c1.27-.1,2.53-.21,3.78-.37C97.06,105.82,95.8,105.93,94.53,106Z"/><path class="cls-2" d="M93.9,107.05c-.62.28,2.41-.15,3.27-.26a16.9,16.9,0,0,1-4.12.47c-1.47,0-3.12,0-5.31,0C89.48,107.27,91.71,107.11,93.9,107.05Z"/><path class="cls-2" d="M196.59,41.13A9.78,9.78,0,0,1,199,43.78a7.93,7.93,0,0,1,1.12,3.9,9.31,9.31,0,0,1-.7,3.67,15.53,15.53,0,0,1-1.47,2.82,30.53,30.53,0,0,1-3.34,4.19,21.89,21.89,0,0,1-3.45,3c.36-.31,1.69-1.47,1.14-1.14a16.93,16.93,0,0,1-4.05,2.85,8.71,8.71,0,0,1-2.06.69l-.88.17c-.33.08-.72.16-1.24.25a16.44,16.44,0,0,1-5.16.23,13.07,13.07,0,0,0,4.05-.22c-.6-.12-3.26.15-5.64-.68a11.27,11.27,0,0,0,4.38.46c-1.44-.27.49-.63,1.75-1.2a3.6,3.6,0,0,0,.82-.12,20.52,20.52,0,0,0,2.89-1.64,25.73,25.73,0,0,0,3.9-3.21c0-.16-1.25.92-2.17,1.57a18.28,18.28,0,0,0,3.87-3.32,21.39,21.39,0,0,0,3.74-5.17,7.25,7.25,0,0,0,.77-3.24,5.06,5.06,0,0,0-1.14-3,11.25,11.25,0,0,0-4.69-3.11c-2.14-.47-3.41-.59-4.48-.77a15.81,15.81,0,0,0-3.32-.27c-1.74.09-2.61.23-3,.2s-.34-.16-.18-.35a16.88,16.88,0,0,1,5.66-1.53,20,20,0,0,1,4.47.08,15.94,15.94,0,0,1,2.81.64A12,12,0,0,1,196.59,41.13Z"/><path class="cls-2" d="M139.86,68.23c-2.57-1.42-2.09-1.38-1.56-1.28A30.23,30.23,0,0,1,142,68.87a28.55,28.55,0,0,1,2.35,1.65,9,9,0,0,1-1.73-.84l-1.41-.79Z"/><path class="cls-2" d="M131,113.41a9.17,9.17,0,0,0,2.26,1.55A9.17,9.17,0,0,1,131,113.41Z"/><path class="cls-2" d="M72.49,74.54l-.7.51c.73-.6,1.47-1.2,2.22-1.71C73.82,73.56,73.11,74,72.49,74.54Z"/><path class="cls-2" d="M65.06,83.49l-.1.09a18,18,0,0,1,1.71-2.93l-1,1.69Z"/><path class="cls-2" d="M66.51,78.85l-.33.42-.34.52-.66,1.06c-.22.36-.44.71-.63,1.08L64,83.1a16.6,16.6,0,0,0-.91,2.41,20,20,0,0,0-.61,2.54,22.26,22.26,0,0,1,1.11-4.63c.35-1,.54-1.57.75-2.06s.41-1,.78-1.67a20.09,20.09,0,0,1,1.74-2.79,38.46,38.46,0,0,1,4.86-4.51,25.3,25.3,0,0,1,5.61-3.28c1.23-.49,1.09-.09-1,1.22a34.43,34.43,0,0,0-6.53,5.07C67.76,77.43,66.41,79.43,66.51,78.85Z"/><path class="cls-2" d="M181.47,66a12.57,12.57,0,0,0,1.39-.2c-.25.07-.52.11-.79.16Z"/><path class="cls-2" d="M66.22,79.5c.11-.17.21-.27.31-.4-.22.31-.47.79-.7,1.2Z"/><path class="cls-2" d="M154.2,10.91h-.06L154,11l-.41.14a6.68,6.68,0,0,1-.82.19A5.82,5.82,0,0,0,154,11l.1,0h0Z"/><path class="cls-2" d="M72.59,71.35c-.71.46-1.4,1-2.1,1.56C71.19,72.35,71.88,71.81,72.59,71.35Z"/><path class="cls-2" d="M182.47,65a13.35,13.35,0,0,1-5-.28A13.35,13.35,0,0,0,182.47,65Z"/><path class="cls-2" d="M171.25,61.41a13.66,13.66,0,0,0,2,1.72c-.23-.17-.47-.33-.69-.5A15,15,0,0,1,171.25,61.41Z"/><path class="cls-2" d="M167.23,55c-.36-.91,0-.12.25.26S167.72,56,167.23,55Z"/><path class="cls-2" d="M179.24,63.36a8.87,8.87,0,0,1,1.56.17A6.59,6.59,0,0,1,179.24,63.36Z"/><path class="cls-2" d="M182.61,62.48c2-.14,4.18-1.54,4.71-1.75a14.19,14.19,0,0,1-2.66,1.38A3.82,3.82,0,0,1,182.61,62.48Z"/><path class="cls-2" d="M169.13,56.44c-.48-1-.92-2-1.34-3C168.21,54.42,168.65,55.44,169.13,56.44Z"/><path class="cls-2" d="M176.17,62.6a9,9,0,0,0,1.52.35,9.32,9.32,0,0,0,1,.3,10.25,10.25,0,0,1-1.8-.3C176.66,62.84,176.41,62.73,176.17,62.6Z"/><path class="cls-2" d="M77.21,114c1,.43,1.06.52.64.43a14.21,14.21,0,0,1-2.39-.9,19.35,19.35,0,0,1-3-1.61c-.82-.51-1.33-.94-1.19-.91.57.34,1.48.81,2.53,1.39S76.07,113.46,77.21,114Z"/><path class="cls-2" d="M86.74,115.69a6.26,6.26,0,0,1-2.49-.14,6.9,6.9,0,0,1-2.45-.65C83.92,115.36,85.42,115.45,86.74,115.69Z"/><path class="cls-2" d="M81.72,116.12c-.06.1-.7,0-1.55-.24s-2-.68-2.87-1c.88.3,1.39.41,2,.57l1,.29Z"/><path class="cls-2" d="M79,118.11a48.62,48.62,0,0,1-6.45-2.24c-.88-.43-1.78-.91-2.89-1.58-.55-.37-1.15-.82-1.82-1.34l-1-.85q-.56-.51-1.14-1.11A35.75,35.75,0,0,0,79,118.11Z"/><path class="cls-2" d="M76.27,117.71a14,14,0,0,1-2.86-1.17C74.35,117,75.32,117.39,76.27,117.71Z"/><path class="cls-2" d="M81.77,119c-.93-.18-1.83-.33-2.78-.59.63.18,1.22.27,1.83.39Z"/><path class="cls-2" d="M84,119.66c-1.11-.09-2.4-.35-3.62-.58,1,.18,2.14.4,3.11.49Z"/><path class="cls-2" d="M109.24,117.75c.66,0-1,.37-1.68.33A13.51,13.51,0,0,1,109.24,117.75Z"/><path class="cls-2" d="M165.69,2.34A18.83,18.83,0,0,0,164,0a12.75,12.75,0,0,1,1.57,1.41,13.77,13.77,0,0,1,1.68,2.4,12.61,12.61,0,0,1,1.49,4.75c0,.32-.12.21-.24-.17-.07-.19-.13-.45-.21-.76l-.35-1A15.18,15.18,0,0,0,165.69,2.34Z"/><path class="cls-2" d="M179.2,53.65c.06,0,.18.11.3.22l.27.26c.06.13,0,.19-.22.12S179.1,53.81,179.2,53.65Z"/><polygon class="cls-2" points="173.05 20.25 172.35 23.18 172.96 20.06 173.05 20.25"/></g><path d="M157.2,296.67c.81-12,1.61-23.94,2.15-35.92.5-11,1.25-22.31.11-33.33a55.45,55.45,0,0,0-3.7-15.44,53.9,53.9,0,0,0-8-13.16c-6.43-8-14.23-15-21.89-21.78-13.55-12-29.05-22.4-47.41-24.73-17.72-2.26-37.39,3.27-49.48,16.9-5,5.63-9.42,13.76-7.7,21.51,2,9.2,12.72,12.75,20.9,14,11,1.71,22.29-.4,33-3,5.08-1.23,10.15-2.61,15.39-2.94,4.61-.28,10,.32,13.46,3.67,5.19,5,3.14,13.22,4.89,19.53a10.1,10.1,0,0,0,2.83,5.06,10.55,10.55,0,0,0,5.76,2.26c4.55.55,9.22-.59,13.47-2.12a38.41,38.41,0,0,0,18.68-14,45.25,45.25,0,0,0,7.41-19.76c1.16-8.46.62-17.07,2.11-25.51,1.65-9.35,6.1-17.48,13.78-23.22,8-6,17.74-9.45,27.3-12.07,10.83-3,22.39-5.42,33.65-3.79,7.16,1,19.88,5,19,14.44-.38,3.9-3.08,7.19-6.15,9.42a29.51,29.51,0,0,1-13.64,4.91,51.71,51.71,0,0,1-15.26-.4c-5-.84-9.63-2.72-14.48-4.08-4.31-1.21-9.13-2.14-13.47-.55-3.49,1.28-5.22,3.92-6.38,7.29a12.85,12.85,0,0,1-1.93,4.2c-1.45,1.73-3.83,1.88-5.93,1.6A18.9,18.9,0,0,1,163.83,159c-7-8.63-1.88-19.7-.92-29.42,1.8-18.15-4.25-37.48-19.48-48.4a49.31,49.31,0,0,0-23.66-8.76,55.75,55.75,0,0,0-23.83,2.3c-5.94,2-13,5.86-14.75,12.42-1.92,7.14,3.9,13.19,10.42,14.86,8.68,2.23,17.62-.93,26.28-1.59,3.78-.28,8.12-.11,11.06,2.62,2.74,2.54,3.4,6.56,6.43,8.88,3.3,2.53,8,2.5,11.82,1.38,4.05-1.19,7.63-3.66,9.11-7.74,1.57-4.32.85-9.3,1-13.81a94.18,94.18,0,0,1,1.56-14.61c1.89-9.85,5.92-19.6,12.6-27.19,3.1-3.53,7.08-6.2,11.84-6.67,3.45-.34,9.73.14,10.73,4.39.6,2.57-1.31,5.14-2.84,7a23.38,23.38,0,0,1-4.92,4.71c-4.1,2.77-9,2.12-11.75-2.09s-4.29-9.65-5.17-14.54a46,46,0,0,1,0-16.13c1.43-8.23,3.87-17.24-2.78-23.92-.84-.84-3.59.29-2.67,1.21,7.21,7.25,3.13,17.1,2.1,25.85a47.33,47.33,0,0,0,.86,15.83,48.27,48.27,0,0,0,2.51,7.89A25.5,25.5,0,0,0,172.28,59a10.45,10.45,0,0,0,11.24,3.57c4.29-1.11,7.71-4.33,10.4-7.7s4.93-8,.85-11.23c-3.05-2.41-7.63-2.76-11.34-2.34-9.72,1.08-16.14,8.88-20.64,16.89-4.83,8.6-7.21,18.3-8,28.07-.42,4.83-.23,9.65-.45,14.48s-2.11,8.73-6.76,10.44c-4.1,1.5-8.87,1-11.54-2.73-2.17-3-3.14-6.5-6.66-8.39s-7.38-1.92-11.12-1.64c-4.43.34-8.78,1.27-13.18,1.84-7.42,1-17.78.78-20.71-7.77C82,85.62,87.77,80.25,93.5,77.6c7.08-3.26,15.31-4,23-3.51a47.64,47.64,0,0,1,24.3,8.34,44.17,44.17,0,0,1,15.31,19.41,59.33,59.33,0,0,1,3.53,30.75c-.81,5.58-2.63,11.09-2.42,16.78a18,18,0,0,0,3.93,10.8A21,21,0,0,0,172.07,167c3.93,1.05,9,1.06,11.92-2.3,2.06-2.4,2.16-5.72,3.89-8.29,2.57-3.84,8.08-3,11.91-2.05,4.83,1.16,9.41,3.14,14.27,4.17a57.75,57.75,0,0,0,15.07,1.24c8.73-.45,18.68-3.12,24.11-10.51,2.06-2.82,3.25-6.39,2.33-9.86-1-3.77-4.21-6.54-7.49-8.39-9-5-20-5.31-30-4a131,131,0,0,0-31.44,8.17c-8.62,3.42-17.32,8.16-23.08,15.63-5.55,7.2-7.52,16-8.21,24.85-.63,7.94-.34,16-2.33,23.77A38.8,38.8,0,0,1,142.4,218.2a34.63,34.63,0,0,1-10.18,6.56C128,226.57,123,228,118.4,227.37c-8.9-1.27-6.88-12.81-8.16-19.22a12.69,12.69,0,0,0-5.08-8.21c-3.82-2.65-8.69-3.26-13.23-3.1a73.34,73.34,0,0,0-15,2.61,145,145,0,0,1-17,3.42c-9.79,1.21-21.31,1-29.8-4.78a13.29,13.29,0,0,1-6.16-11.67A24.42,24.42,0,0,1,27.64,175c4.22-7,11-12.34,18.31-15.86,17.75-8.57,38.3-6.18,55.26,3.1a120.75,120.75,0,0,1,21.55,15.63c7.65,6.75,15.41,13.7,21.88,21.61a52.91,52.91,0,0,1,8.22,13.3,56.21,56.21,0,0,1,3.73,15.7c1.13,11.24.31,22.77-.22,34-.54,11.5-1.32,23-2.09,34.47-.09,1.37,2.84.89,2.92-.28Z"/></svg>
