<svg xmlns="http://www.w3.org/2000/svg" width="4800" height="600" viewBox="0 0 4800 600"><defs><style>.cls-1,.cls-12,.cls-14,.cls-16,.cls-17,.cls-18,.cls-19,.cls-2,.cls-3,.cls-4,.cls-5,.cls-6,.cls-7,.cls-8,.cls-9{fill:#020000;}.cls-1,.cls-12,.cls-13,.cls-14,.cls-16,.cls-17,.cls-18,.cls-19,.cls-2,.cls-20,.cls-3,.cls-4,.cls-5,.cls-6,.cls-7,.cls-8,.cls-9{stroke:#000;}.cls-1,.cls-10,.cls-11,.cls-12,.cls-13,.cls-14,.cls-15,.cls-16,.cls-17,.cls-18,.cls-19,.cls-2,.cls-20,.cls-3,.cls-4,.cls-5,.cls-6,.cls-7,.cls-8,.cls-9{stroke-miterlimit:10;}.cls-1{stroke-width:1.09px;}.cls-2{stroke-width:0.64px;}.cls-3{stroke-width:0.69px;}.cls-4{stroke-width:0.73px;}.cls-5{stroke-width:1.01px;}.cls-6{stroke-width:0.6px;}.cls-7{stroke-width:0.64px;}.cls-8{stroke-width:0.67px;}.cls-9{stroke-width:1.85px;}.cls-10,.cls-11{fill:#fff;stroke:gray;stroke-width:2.85px;}.cls-11,.cls-12,.cls-13,.cls-15,.cls-20{stroke-linecap:round;}.cls-12,.cls-13,.cls-15{stroke-width:3.07px;}.cls-13,.cls-20{fill:none;}.cls-14{stroke-width:0.68px;}.cls-15{fill:#f25f98;stroke:#f25f98;}.cls-16{stroke-width:1.03px;}.cls-17{stroke-width:0.61px;}.cls-18{stroke-width:0.65px;}.cls-19{stroke-width:0.69px;}</style></defs><title>sprite-animation-cloud</title><g id="Layer_1" data-name="Layer 1"><path class="cls-1" d="M453.81,430.11a1.16,1.16,0,0,1-.66-.27c-1.2-1.31-3.11-1.57-1.45-3.74,49.91-65.27,28.05-108.7-3.89-173.74-1.06-2.16.53-2.53,2-3.71a1.33,1.33,0,0,1,.68-.24c2.12,0,3.4-.65,4.52,1.58,33.78,66.93,53.42,111.88,3.51,178.87C456.84,431.08,456.09,430.15,453.81,430.11Z"/><path class="cls-2" d="M453.94,426.28a1.85,1.85,0,0,0-.37-.31,1.14,1.14,0,0,0-1.34,0,78.68,78.68,0,0,0-7.81,6.19c-.43.37-.23.7.07,1a2.16,2.16,0,0,0,.4.32,1,1,0,0,0,1.25,0c2.45-2.09,5.06-4.24,7.68-6.21A.61.61,0,0,0,453.94,426.28Z"/><path class="cls-3" d="M457,427.61a3.11,3.11,0,0,1,.91.11c.46.09.82.31.73.83-.49,2.9-.91,6-1.15,8.93-.05.53-.48.66-.93.65a2.91,2.91,0,0,1-.88-.11c-.44-.1-.86-.33-.82-.86.2-2.91.6-6,1.06-8.93C456,427.7,456.55,427.59,457,427.61Z"/><path class="cls-4" d="M455.29,426.32a4.35,4.35,0,0,1,1,.41c.41.22.65.54.33,1a79.09,79.09,0,0,0-4.66,7.94.91.91,0,0,1-1.2.35,4.59,4.59,0,0,1-1-.43c-.41-.21-.75-.55-.5-1.05a55.42,55.42,0,0,1,4.67-7.91A1.16,1.16,0,0,1,455.29,426.32Z"/><path class="cls-5" d="M156.37,416.1a1.16,1.16,0,0,1-.62.22c-2.05,0-3,.66-4.3-1.36-39.2-60.89-19.25-104.15,2.56-164.57.72-2,2-1.6,3.92-1.71a1.45,1.45,0,0,1,.65.16c1.52.92,2.91,1.25,2.17,3.22-22.19,59.52-40.42,100.65-2.79,160.69C159.21,414.75,157.63,415,156.37,416.1Z"/><path class="cls-6" d="M152.84,413.82a2.24,2.24,0,0,0-.52,0c-.49.1-.83.25-.75.73a72.11,72.11,0,0,1,.73,8.28c0,.48.37.58.86.63a2.07,2.07,0,0,0,.5,0c.49-.11.82-.26.81-.74a82.28,82.28,0,0,0-.67-8.27C153.74,414,153.34,413.86,152.84,413.82Z"/><path class="cls-7" d="M155.9,412.85a2.63,2.63,0,0,1,.63-.44,1.06,1.06,0,0,1,1.24.06c2.33,1.91,4.8,4,7,6,.4.36.19.71-.09,1a2.66,2.66,0,0,1-.63.45,1,1,0,0,1-1.19-.06c-2.2-2-4.63-4.1-7-6C155.46,413.45,155.63,413.1,155.9,412.85Z"/><path class="cls-8" d="M153.61,413.09a4.77,4.77,0,0,1,1-.32,1,1,0,0,1,1.23.37c1.42,2.4,2.86,5,4,7.47.23.47-.09.76-.49.94a4.65,4.65,0,0,1-1,.34.9.9,0,0,1-1.14-.38c-1.2-2.46-2.6-5.09-4-7.48C152.94,413.57,153.2,413.27,153.61,413.09Z"/><path class="cls-9" d="M374.18,245.83h-8.55v315H393.1a3.17,3.17,0,0,0,1.52-6l-20.44-11.16Z"/><path class="cls-9" d="M265.84,245.83h8.56v315H246.92a3.17,3.17,0,0,1-1.52-6l20.44-11.16Z"/><path class="cls-10" d="M523.55,198.64c-2-14-17.77-23.43-35.31-21a40.43,40.43,0,0,0-5.73,1.24v0a83.43,83.43,0,0,0-.66-10.31,22.44,22.44,0,0,0,6.37-15.35c0-11.56-9.55-21.33-22.68-24.54a87.56,87.56,0,0,0-9-10.11,21.23,21.23,0,0,0-.17-3.81c-1.8-12.88-15.26-21.84-31-21.35,4.19-6.1,5.76-13.26,3.72-20-3.38-11.2-15.61-17.8-29.31-16.89C395.54,46.17,386.94,39.14,377,39.14c-13.84,0-25.12,13.7-25.63,30.85a32.54,32.54,0,0,0-12.15-2.34C323.12,67.65,310,79.14,310,93.31a23,23,0,0,0,.45,4.33,32.82,32.82,0,0,0-9.71-1.48c-14,0-25.7,8.65-28.55,20.2a40.09,40.09,0,0,0-21.35-6c-19.28,0-34.92,12.77-34.92,28.51a23.57,23.57,0,0,0,.6,5.26C209.1,146.7,203.18,151,200,156.33a40.65,40.65,0,0,0-19-4.58c-13.75,0-25.63,6.48-31.33,15.91a40.76,40.76,0,0,0-4.31-.23c-18.17,0-33.1,11.33-34.76,25.81-1.19-.09-2.39-.15-3.61-.15-17,0-30.77,8.93-30.77,20S90,233,107,233a44,44,0,0,0,15-2.54,21.51,21.51,0,0,0-.15,2.54c0,15.75,15.64,28.51,34.92,28.51,14.81,0,27.45-7.52,32.53-18.13,12.55,10.21,31.31,16.71,52.29,16.71,20.3,0,38.53-6.09,51.06-15.74,12,13.69,33.77,22.86,58.7,22.86a95.22,95.22,0,0,0,27.58-4,92.61,92.61,0,0,0,39.67-2.35,38.09,38.09,0,0,0,16.14,3.49c9.68,0,18.35-3.43,24.23-8.86,5.88,5.43,14.56,8.86,24.24,8.86,17.71,0,32.07-11.48,32.07-25.66a22.3,22.3,0,0,0-6-14.95C519,218.11,524.93,208.55,523.55,198.64Z"/><path class="cls-11" d="M200.27,156c0-11,13.16-20,28.51-20s29.94,14.64,29.94,25.66"/><path class="cls-11" d="M265.36,157.83c1.56-10.91,13.72-25.39,28.23-26.19,15.33-.85,27.77,7.25,26.2,18.16"/><path class="cls-11" d="M411,174c2.4-7.42,13.2-10.57,23.53-7.23s17,16.37,14.57,23.79"/><path class="cls-11" d="M449.6,191c3.43-7,14.76-14.11,24.71-11.49,10.5,2.76,17.11,10.91,13.68,17.92"/></g><g id="Layer_2" data-name="Layer 2"><path class="cls-1" d="M1053.81,430.11a1.16,1.16,0,0,1-.66-.27c-1.2-1.31-3.11-1.57-1.45-3.74,49.91-65.27,28-108.7-3.89-173.74-1.06-2.16.53-2.53,2-3.71a1.33,1.33,0,0,1,.68-.24c2.12,0,3.4-.65,4.52,1.58,33.78,66.93,53.42,111.88,3.51,178.87C1056.84,431.08,1056.09,430.15,1053.81,430.11Z"/><path class="cls-2" d="M1053.94,426.28a1.85,1.85,0,0,0-.37-.31,1.14,1.14,0,0,0-1.34,0,78.68,78.68,0,0,0-7.81,6.19c-.43.37-.23.7.07,1a2.16,2.16,0,0,0,.4.32,1,1,0,0,0,1.25,0c2.45-2.09,5.06-4.24,7.68-6.21A.61.61,0,0,0,1053.94,426.28Z"/><path class="cls-3" d="M1057,427.61a3.11,3.11,0,0,1,.91.11c.46.09.82.31.73.83-.49,2.9-.91,6-1.15,8.93,0,.53-.48.66-.93.65a2.91,2.91,0,0,1-.88-.11c-.44-.1-.86-.33-.82-.86.2-2.91.6-6,1.06-8.93C1056,427.7,1056.55,427.59,1057,427.61Z"/><path class="cls-4" d="M1055.29,426.32a4.35,4.35,0,0,1,1,.41c.41.22.65.54.33,1a79.09,79.09,0,0,0-4.66,7.94.91.91,0,0,1-1.2.35,4.59,4.59,0,0,1-1-.43c-.41-.21-.75-.55-.5-1.05a55.42,55.42,0,0,1,4.67-7.91A1.16,1.16,0,0,1,1055.29,426.32Z"/><path class="cls-5" d="M756.37,416.1a1.16,1.16,0,0,1-.62.22c-2,0-3,.66-4.3-1.36-39.2-60.89-19.25-104.15,2.56-164.57.72-2,2-1.6,3.92-1.71a1.45,1.45,0,0,1,.65.16c1.52.92,2.91,1.25,2.17,3.22-22.19,59.52-40.42,100.65-2.79,160.69C759.21,414.75,757.63,415,756.37,416.1Z"/><path class="cls-6" d="M752.84,413.82a2.24,2.24,0,0,0-.52,0c-.49.1-.83.25-.75.73a72.11,72.11,0,0,1,.73,8.28c0,.48.37.58.86.63a2.07,2.07,0,0,0,.5,0c.49-.11.82-.26.81-.74a82.28,82.28,0,0,0-.67-8.27C753.74,414,753.34,413.86,752.84,413.82Z"/><path class="cls-7" d="M755.9,412.85a2.63,2.63,0,0,1,.63-.44,1.06,1.06,0,0,1,1.24.06c2.33,1.91,4.8,4,7,6,.4.36.19.71-.09,1a2.66,2.66,0,0,1-.63.45,1,1,0,0,1-1.19-.06c-2.2-2-4.63-4.1-7-6C755.46,413.45,755.63,413.1,755.9,412.85Z"/><path class="cls-8" d="M753.61,413.09a4.77,4.77,0,0,1,1-.32,1,1,0,0,1,1.23.37c1.42,2.4,2.86,5,4,7.47.23.47-.09.76-.49.94a4.65,4.65,0,0,1-1,.34.9.9,0,0,1-1.14-.38c-1.2-2.46-2.6-5.09-4-7.48C752.94,413.57,753.2,413.27,753.61,413.09Z"/><path class="cls-9" d="M974.18,245.83h-8.55v315H993.1a3.17,3.17,0,0,0,1.52-6l-20.44-11.16Z"/><path class="cls-9" d="M865.84,245.83h8.56v315H846.92a3.17,3.17,0,0,1-1.52-6l20.44-11.16Z"/><path class="cls-10" d="M1123.55,198.64c-2-14-17.77-23.43-35.31-21a40.43,40.43,0,0,0-5.73,1.24v0a83.43,83.43,0,0,0-.66-10.31,22.44,22.44,0,0,0,6.37-15.35c0-11.56-9.55-21.33-22.68-24.54a87.56,87.56,0,0,0-9-10.11,21.23,21.23,0,0,0-.17-3.81c-1.8-12.88-15.26-21.84-31-21.35,4.19-6.1,5.76-13.26,3.72-20-3.38-11.2-15.61-17.8-29.31-16.89C995.54,46.17,986.94,39.14,977,39.14c-13.84,0-25.12,13.7-25.63,30.85a32.54,32.54,0,0,0-12.15-2.34C923.12,67.65,910,79.14,910,93.31a23,23,0,0,0,.45,4.33,32.82,32.82,0,0,0-9.71-1.48c-14,0-25.7,8.65-28.55,20.2a40.09,40.09,0,0,0-21.35-6c-19.28,0-34.92,12.77-34.92,28.51a23.57,23.57,0,0,0,.6,5.26C809.1,146.7,803.18,151,800,156.33a40.65,40.65,0,0,0-19-4.58c-13.75,0-25.63,6.48-31.33,15.91a40.76,40.76,0,0,0-4.31-.23c-18.17,0-33.1,11.33-34.76,25.81-1.19-.09-2.39-.15-3.61-.15-17,0-30.77,8.93-30.77,20S690,233,707,233a44,44,0,0,0,15-2.54,21.51,21.51,0,0,0-.15,2.54c0,15.75,15.64,28.51,34.92,28.51,14.81,0,27.45-7.52,32.53-18.13,12.55,10.21,31.31,16.71,52.29,16.71,20.3,0,38.53-6.09,51.06-15.74,12,13.69,33.77,22.86,58.7,22.86a95.22,95.22,0,0,0,27.58-4,92.61,92.61,0,0,0,39.67-2.35,38.09,38.09,0,0,0,16.14,3.49c9.68,0,18.35-3.43,24.23-8.86,5.88,5.43,14.56,8.86,24.24,8.86,17.71,0,32.07-11.48,32.07-25.66a22.3,22.3,0,0,0-6-14.95C1119,218.11,1124.93,208.55,1123.55,198.64Z"/><path class="cls-11" d="M800.27,156c0-11,13.16-20,28.51-20s29.94,14.64,29.94,25.66"/><path class="cls-11" d="M865.36,157.83c1.56-10.91,13.72-25.39,28.23-26.19,15.33-.85,27.77,7.25,26.2,18.16"/><path class="cls-11" d="M1011,174c2.4-7.42,13.2-10.57,23.53-7.23s17,16.37,14.57,23.79"/><path class="cls-11" d="M1049.6,191c3.43-7,14.76-14.11,24.71-11.49,10.5,2.76,17.11,10.91,13.68,17.92"/><line class="cls-12" x1="912.55" y1="223.31" x2="927.55" y2="223.31"/></g><g id="Layer_3" data-name="Layer 3"><path class="cls-1" d="M1653.81,430.11a1.16,1.16,0,0,1-.66-.27c-1.2-1.31-3.11-1.57-1.45-3.74,49.91-65.27,28-108.7-3.89-173.74-1.06-2.16.53-2.53,2-3.71a1.33,1.33,0,0,1,.68-.24c2.12,0,3.4-.65,4.52,1.58,33.78,66.93,53.42,111.88,3.51,178.87C1656.84,431.08,1656.09,430.15,1653.81,430.11Z"/><path class="cls-2" d="M1653.94,426.28a1.85,1.85,0,0,0-.37-.31,1.14,1.14,0,0,0-1.34,0,78.68,78.68,0,0,0-7.81,6.19c-.43.37-.23.7.07,1a2.16,2.16,0,0,0,.4.32,1,1,0,0,0,1.25,0c2.45-2.09,5.06-4.24,7.68-6.21A.61.61,0,0,0,1653.94,426.28Z"/><path class="cls-3" d="M1657,427.61a3.11,3.11,0,0,1,.91.11c.46.09.82.31.73.83-.49,2.9-.91,6-1.15,8.93,0,.53-.48.66-.93.65a2.91,2.91,0,0,1-.88-.11c-.44-.1-.86-.33-.82-.86.2-2.91.6-6,1.06-8.93C1656,427.7,1656.55,427.59,1657,427.61Z"/><path class="cls-4" d="M1655.29,426.32a4.35,4.35,0,0,1,1,.41c.41.22.65.54.33,1a79.09,79.09,0,0,0-4.66,7.94.91.91,0,0,1-1.2.35,4.59,4.59,0,0,1-1-.43c-.41-.21-.75-.55-.5-1.05a55.42,55.42,0,0,1,4.67-7.91A1.16,1.16,0,0,1,1655.29,426.32Z"/><path class="cls-5" d="M1356.37,416.1a1.16,1.16,0,0,1-.62.22c-2,0-3,.66-4.3-1.36-39.2-60.89-19.25-104.15,2.56-164.57.72-2,2-1.6,3.92-1.71a1.45,1.45,0,0,1,.65.16c1.52.92,2.91,1.25,2.17,3.22-22.19,59.52-40.42,100.65-2.79,160.69C1359.21,414.75,1357.63,415,1356.37,416.1Z"/><path class="cls-6" d="M1352.84,413.82a2.24,2.24,0,0,0-.52,0c-.49.1-.83.25-.75.73a72.11,72.11,0,0,1,.73,8.28c0,.48.37.58.86.63a2.07,2.07,0,0,0,.5,0c.49-.11.82-.26.81-.74a82.28,82.28,0,0,0-.67-8.27C1353.74,414,1353.34,413.86,1352.84,413.82Z"/><path class="cls-7" d="M1355.9,412.85a2.63,2.63,0,0,1,.63-.44,1.06,1.06,0,0,1,1.24.06c2.33,1.91,4.8,4,7,6,.4.36.19.71-.09,1a2.66,2.66,0,0,1-.63.45,1,1,0,0,1-1.19-.06c-2.2-2-4.63-4.1-7-6C1355.46,413.45,1355.63,413.1,1355.9,412.85Z"/><path class="cls-8" d="M1353.61,413.09a4.77,4.77,0,0,1,1-.32,1,1,0,0,1,1.23.37c1.42,2.4,2.86,5,4,7.47.23.47-.09.76-.49.94a4.65,4.65,0,0,1-1,.34.9.9,0,0,1-1.14-.38c-1.2-2.46-2.6-5.09-4-7.48C1352.94,413.57,1353.2,413.27,1353.61,413.09Z"/><path class="cls-9" d="M1574.18,245.83h-8.55v315h27.47a3.17,3.17,0,0,0,1.52-6l-20.44-11.16Z"/><path class="cls-9" d="M1465.84,245.83h8.56v315h-27.48a3.17,3.17,0,0,1-1.52-6l20.44-11.16Z"/><path class="cls-10" d="M1723.55,198.64c-2-14-17.77-23.43-35.31-21a40.43,40.43,0,0,0-5.73,1.24v0a83.43,83.43,0,0,0-.66-10.31,22.44,22.44,0,0,0,6.37-15.35c0-11.56-9.55-21.33-22.68-24.54a87.56,87.56,0,0,0-9-10.11,21.23,21.23,0,0,0-.17-3.81c-1.8-12.88-15.26-21.84-31-21.35,4.19-6.1,5.76-13.26,3.72-20-3.38-11.2-15.61-17.8-29.31-16.89-4.27-10.29-12.87-17.32-22.78-17.32-13.84,0-25.12,13.7-25.63,30.85a32.54,32.54,0,0,0-12.15-2.34c-16.13,0-29.22,11.49-29.22,25.66a23,23,0,0,0,.45,4.33,32.82,32.82,0,0,0-9.71-1.48c-14,0-25.7,8.65-28.55,20.2a40.09,40.09,0,0,0-21.35-6c-19.28,0-34.92,12.77-34.92,28.51a23.57,23.57,0,0,0,.6,5.26c-7.45,2.52-13.37,6.85-16.55,12.15a40.65,40.65,0,0,0-19-4.58c-13.75,0-25.63,6.48-31.33,15.91a40.76,40.76,0,0,0-4.31-.23c-18.17,0-33.1,11.33-34.76,25.81-1.19-.09-2.39-.15-3.61-.15-17,0-30.77,8.93-30.77,20S1290,233,1307,233a44,44,0,0,0,15-2.54,21.51,21.51,0,0,0-.15,2.54c0,15.75,15.64,28.51,34.92,28.51,14.81,0,27.45-7.52,32.53-18.13,12.55,10.21,31.31,16.71,52.29,16.71,20.3,0,38.53-6.09,51.06-15.74,12,13.69,33.77,22.86,58.7,22.86a95.22,95.22,0,0,0,27.58-4,92.61,92.61,0,0,0,39.67-2.35,38.09,38.09,0,0,0,16.14,3.49c9.68,0,18.35-3.43,24.23-8.86,5.88,5.43,14.56,8.86,24.24,8.86,17.71,0,32.07-11.48,32.07-25.66a22.3,22.3,0,0,0-6-14.95C1719,218.11,1724.93,208.55,1723.55,198.64Z"/><path class="cls-11" d="M1400.27,156c0-11,13.16-20,28.51-20s29.94,14.64,29.94,25.66"/><path class="cls-11" d="M1465.36,157.83c1.56-10.91,13.72-25.39,28.23-26.19,15.33-.85,27.77,7.25,26.2,18.16"/><path class="cls-11" d="M1611,174c2.4-7.42,13.2-10.57,23.53-7.23s17,16.37,14.57,23.79"/><path class="cls-11" d="M1649.6,191c3.43-7,14.76-14.11,24.71-11.49,10.5,2.76,17.11,10.91,13.68,17.92"/><path class="cls-13" d="M1494.6,217.19c16.53,17.55,33.2,17.12,50,0"/></g><g id="Layer_4" data-name="Layer 4"><path class="cls-14" d="M2220.14,260.44c-1.39-3.31-2.48-1.15-4.51-2.53-.2-.13-.63-.13-.72,0-.92,1.48-3.77-.9-2.31,2.63,43.93,106.59,22.28,86.46,118.59,135.65.24.12.19.22.31.33,2.24,1.92,4.38,3.92,6.69,5.68.45.35.57.06.74-.31a1.14,1.14,0,0,0,.08-.46,1.42,1.42,0,0,0-.45-1.28c-1.85-1.55-3.74-3.1-5.56-4.7,0-.16.05-.32.08-.48a53.18,53.18,0,0,0,5.11,1.76c.49.13.58-.35.59-.74a7.5,7.5,0,0,0-.07-1.14c-.06-.42-.21-1-.69-1.12-1.73-.57-3.44-1.15-5.13-1.83l-.15-.58a52.32,52.32,0,0,0,5.3-.89c.42-.09.4-.65.33-1a5.79,5.79,0,0,0-.25-.93c-.12-.36-.37-.85-.8-.77-2.3.39-4.52.75-6.89.92C2238.16,343.24,2262.21,360,2220.14,260.44Z"/><path class="cls-5" d="M1941.1,416.1a1.16,1.16,0,0,1-.62.22c-2,0-3,.66-4.3-1.36-39.2-60.89-19.25-104.15,2.56-164.57.72-2,2-1.6,3.92-1.71a1.45,1.45,0,0,1,.65.16c1.52.92,2.91,1.25,2.17,3.22-22.19,59.52-40.42,100.65-2.79,160.69C1943.94,414.75,1942.36,415,1941.1,416.1Z"/><path class="cls-6" d="M1937.57,413.82a2.24,2.24,0,0,0-.52,0c-.49.1-.83.25-.75.73a72.11,72.11,0,0,1,.73,8.28c0,.48.37.58.86.63a2.07,2.07,0,0,0,.5,0c.49-.11.82-.26.81-.74a82.28,82.28,0,0,0-.67-8.27C1938.47,414,1938.08,413.86,1937.57,413.82Z"/><path class="cls-7" d="M1940.64,412.85a2.38,2.38,0,0,1,.62-.44,1.06,1.06,0,0,1,1.24.06c2.33,1.91,4.8,4,7,6,.4.36.19.71-.09,1a2.66,2.66,0,0,1-.63.45,1,1,0,0,1-1.19-.06c-2.2-2-4.63-4.1-7-6C1940.2,413.45,1940.36,413.1,1940.64,412.85Z"/><path class="cls-8" d="M1938.34,413.09a4.77,4.77,0,0,1,1-.32,1,1,0,0,1,1.23.37c1.42,2.4,2.86,5,4,7.47.22.47-.1.76-.5.94a4.65,4.65,0,0,1-1,.34.9.9,0,0,1-1.14-.38c-1.2-2.46-2.6-5.09-4-7.48C1937.67,413.57,1937.93,413.27,1938.34,413.09Z"/><path class="cls-9" d="M2158.91,245.83h-8.55v315h27.47a3.17,3.17,0,0,0,1.52-6l-20.44-11.16Z"/><path class="cls-9" d="M2050.57,245.83h8.56v315h-27.48a3.17,3.17,0,0,1-1.52-6l20.44-11.16Z"/><path class="cls-10" d="M2308.28,198.64c-2-14-17.77-23.43-35.31-21a40.43,40.43,0,0,0-5.73,1.24v0a83.43,83.43,0,0,0-.66-10.31,22.44,22.44,0,0,0,6.37-15.35c0-11.56-9.55-21.33-22.68-24.54a86.63,86.63,0,0,0-8.95-10.11,20.34,20.34,0,0,0-.17-3.81c-1.8-12.88-15.26-21.84-31-21.35,4.19-6.1,5.76-13.26,3.72-20-3.38-11.2-15.61-17.8-29.31-16.89-4.27-10.29-12.87-17.32-22.78-17.32-13.84,0-25.12,13.7-25.63,30.85A32.54,32.54,0,0,0,2124,67.65c-16.13,0-29.22,11.49-29.22,25.66a23,23,0,0,0,.45,4.33,32.82,32.82,0,0,0-9.71-1.48c-14,0-25.7,8.65-28.55,20.2a40.08,40.08,0,0,0-21.34-6c-19.29,0-34.93,12.77-34.93,28.51a23.57,23.57,0,0,0,.6,5.26c-7.45,2.52-13.37,6.85-16.55,12.15a40.62,40.62,0,0,0-19-4.58c-13.75,0-25.63,6.48-31.33,15.91a40.76,40.76,0,0,0-4.31-.23c-18.17,0-33.09,11.33-34.76,25.81-1.19-.09-2.39-.15-3.61-.15-17,0-30.76,8.93-30.76,20S1874.76,233,1891.75,233a44,44,0,0,0,15-2.54,23.88,23.88,0,0,0-.15,2.54c0,15.75,15.64,28.51,34.92,28.51,14.81,0,27.45-7.52,32.53-18.13,12.56,10.21,31.32,16.71,52.29,16.71,20.3,0,38.53-6.09,51.06-15.74,12,13.69,33.77,22.86,58.7,22.86a95.22,95.22,0,0,0,27.58-4,92.61,92.61,0,0,0,39.67-2.35,38.09,38.09,0,0,0,16.14,3.49c9.68,0,18.35-3.43,24.23-8.86,5.89,5.43,14.56,8.86,24.24,8.86,17.71,0,32.07-11.48,32.07-25.66a22.3,22.3,0,0,0-6-14.95C2303.76,218.11,2309.66,208.55,2308.28,198.64Z"/><path class="cls-11" d="M1985,156c0-11,13.16-20,28.51-20s29.94,14.64,29.94,25.66"/><path class="cls-11" d="M2050.09,157.83c1.56-10.91,13.72-25.39,28.23-26.19,15.33-.85,27.77,7.25,26.2,18.16"/><path class="cls-11" d="M2195.68,174c2.4-7.42,13.2-10.57,23.53-7.23s17,16.37,14.57,23.79"/><path class="cls-11" d="M2234.33,191c3.43-7,14.76-14.11,24.71-11.49,10.5,2.76,17.11,10.91,13.68,17.92"/><path class="cls-15" d="M2121.44,216.23c3.3,8.79,2.61,17.17-1.52,18.73s-10.17-4.32-13.46-13.11"/><path class="cls-13" d="M2080,208.24c16.53,17.55,33.2,17.12,50,0"/></g><g id="Layer_5" data-name="Layer 5"><path class="cls-5" d="M2504.19,416.1a1.16,1.16,0,0,1-.63.22c-2,0-3,.66-4.29-1.36-39.2-60.89-19.26-104.15,2.55-164.57.73-2,2-1.6,3.92-1.71a1.42,1.42,0,0,1,.65.16c1.53.92,2.92,1.25,2.18,3.22-22.2,59.52-40.42,100.65-2.8,160.69C2507,414.75,2505.44,415,2504.19,416.1Z"/><path class="cls-6" d="M2500.65,413.82a2.27,2.27,0,0,0-.52,0c-.48.1-.82.25-.74.73a74.43,74.43,0,0,1,.73,8.28c0,.48.37.58.86.63a2.11,2.11,0,0,0,.5,0c.49-.11.82-.26.8-.74a82.25,82.25,0,0,0-.66-8.27C2501.55,414,2501.16,413.86,2500.65,413.82Z"/><path class="cls-7" d="M2503.72,412.85a2.63,2.63,0,0,1,.63-.44,1.06,1.06,0,0,1,1.24.06c2.32,1.91,4.8,4,7,6,.39.36.18.71-.09,1a2.94,2.94,0,0,1-.64.45,1,1,0,0,1-1.19-.06c-2.19-2-4.62-4.1-6.95-6C2503.28,413.45,2503.44,413.1,2503.72,412.85Z"/><path class="cls-8" d="M2501.43,413.09a4.59,4.59,0,0,1,1-.32,1,1,0,0,1,1.23.37c1.42,2.4,2.86,5,4,7.47.23.47-.1.76-.49.94a4.74,4.74,0,0,1-1,.34.89.89,0,0,1-1.13-.38c-1.2-2.46-2.6-5.09-4-7.48C2500.76,413.57,2501,413.27,2501.43,413.09Z"/><path class="cls-16" d="M2967.81,239a.53.53,0,0,1,.62.11c1.54,1.84,2.71-.16,2.31,3.89-12.14,122-143.1,16.89-191.48-4.37-1.61-.7-1.81-2.09-1.05-3.62a5.66,5.66,0,0,1,.37-.53,3.8,3.8,0,0,1,4.48-1.22c43,19.9,174.94,122.62,181.3,8.35C2964.57,237.77,2966.26,240,2967.81,239Z"/><path class="cls-17" d="M2969,243.41a2,2,0,0,0,.41.3.68.68,0,0,0,1-.44,32.36,32.36,0,0,1,5.34-8.68c.37-.46.13-.68-.17-1a1.36,1.36,0,0,0-.4-.2c-.45-.12-.79-.2-1.17.26a40.72,40.72,0,0,0-5.37,8.38A1.08,1.08,0,0,0,2969,243.41Z"/><path class="cls-18" d="M2966,242.63a2.63,2.63,0,0,1-.75.15,1,1,0,0,1-1-.88,89,89,0,0,1-1.11-9.32c0-.56.46-.7.79-.77a3.61,3.61,0,0,1,.79-.09c.33,0,.83,0,.85.58a85.49,85.49,0,0,0,1,9.31A.91.91,0,0,1,2966,242.63Z"/><path class="cls-19" d="M2967.93,243.84a3.82,3.82,0,0,1-.94-.24,1.19,1.19,0,0,1-.77-1.27,42.47,42.47,0,0,1,2.18-9.34,1,1,0,0,1,1.09-.56,3.64,3.64,0,0,1,1,.16c.35.09.77.25.55.82a42.3,42.3,0,0,0-2.2,9.51C2968.72,243.53,2968.38,243.89,2967.93,243.84Z"/><path class="cls-9" d="M2722,245.83h-8.55v315h27.48a3.17,3.17,0,0,0,1.52-6L2722,543.74Z"/><path class="cls-9" d="M2613.66,245.83h8.55v315h-27.47a3.18,3.18,0,0,1-1.53-6l20.45-11.16Z"/><path class="cls-10" d="M2871.36,198.64c-2-14-17.76-23.43-35.3-21a40.43,40.43,0,0,0-5.73,1.24v0a81.52,81.52,0,0,0-.67-10.31,22.44,22.44,0,0,0,6.37-15.35c0-11.56-9.55-21.33-22.67-24.54a87.56,87.56,0,0,0-9-10.11,20.35,20.35,0,0,0-.18-3.81c-1.79-12.88-15.25-21.84-31-21.35,4.19-6.1,5.75-13.26,3.71-20-3.37-11.2-15.6-17.8-29.3-16.89-4.28-10.29-12.87-17.32-22.78-17.32-13.85,0-25.12,13.7-25.64,30.85a32.45,32.45,0,0,0-12.14-2.34c-16.14,0-29.22,11.49-29.22,25.66a22.16,22.16,0,0,0,.45,4.33,32.94,32.94,0,0,0-9.72-1.48c-14,0-25.69,8.65-28.54,20.2a40.14,40.14,0,0,0-21.35-6c-19.29,0-34.92,12.77-34.92,28.51a23.57,23.57,0,0,0,.6,5.26c-7.45,2.52-13.37,6.85-16.55,12.15a40.66,40.66,0,0,0-19-4.58c-13.74,0-25.62,6.48-31.32,15.91a40.9,40.9,0,0,0-4.31-.23c-18.17,0-33.1,11.33-34.77,25.81-1.18-.09-2.38-.15-3.6-.15-17,0-30.77,8.93-30.77,20S2437.85,233,2454.84,233a43.91,43.91,0,0,0,15-2.54,23.87,23.87,0,0,0-.14,2.54c0,15.75,15.63,28.51,34.92,28.51,14.8,0,27.45-7.52,32.53-18.13,12.55,10.21,31.31,16.71,52.29,16.71,20.3,0,38.53-6.09,51.06-15.74,12,13.69,33.77,22.86,58.7,22.86a95.27,95.27,0,0,0,27.58-4,92.56,92.56,0,0,0,39.66-2.35,38.17,38.17,0,0,0,16.15,3.49c9.68,0,18.35-3.43,24.23-8.86,5.88,5.43,14.55,8.86,24.23,8.86,17.72,0,32.08-11.48,32.08-25.66a22.26,22.26,0,0,0-6-14.95C2866.85,218.11,2872.74,208.55,2871.36,198.64Z"/><path class="cls-11" d="M2548.09,156c0-11,13.16-20,28.51-20s29.93,14.64,29.93,25.66"/><path class="cls-11" d="M2613.17,157.83c1.57-10.91,13.72-25.39,28.24-26.19,15.33-.85,27.76,7.25,26.2,18.16"/><path class="cls-11" d="M2758.76,174c2.4-7.42,13.2-10.57,23.54-7.23s17,16.37,14.57,23.79"/><path class="cls-11" d="M2797.42,191c3.42-7,14.76-14.11,24.7-11.49,10.5,2.76,17.11,10.91,13.69,17.92"/><path class="cls-15" d="M2683.92,211.93c1.39,3.71,6,8.54,7.19,13.41,1.63,6.67-.61,13.1-3,14s-8.62-.35-13-6c-3.18-4.11-4.78-12.09-6.17-15.79"/><path class="cls-13" d="M2642.45,203.94c16.53,17.55,33.2,17.12,50,0"/></g><g id="Layer_6" data-name="Layer 6"><path class="cls-5" d="M3104.19,416.1a1.16,1.16,0,0,1-.63.22c-2,0-3,.66-4.29-1.36-39.2-60.89-19.26-104.15,2.55-164.57.73-2,2-1.6,3.92-1.71a1.42,1.42,0,0,1,.65.16c1.53.92,2.92,1.25,2.18,3.22-22.2,59.52-40.42,100.65-2.8,160.69C3107,414.75,3105.44,415,3104.19,416.1Z"/><path class="cls-6" d="M3100.65,413.82a2.27,2.27,0,0,0-.52,0c-.48.1-.82.25-.74.73a74.43,74.43,0,0,1,.73,8.28c0,.48.37.58.86.63a2.11,2.11,0,0,0,.5,0c.49-.11.82-.26.8-.74a82.25,82.25,0,0,0-.66-8.27C3101.55,414,3101.16,413.86,3100.65,413.82Z"/><path class="cls-7" d="M3103.72,412.85a2.63,2.63,0,0,1,.63-.44,1.06,1.06,0,0,1,1.24.06c2.32,1.91,4.8,4,7,6,.39.36.18.71-.09,1a2.94,2.94,0,0,1-.64.45,1,1,0,0,1-1.19-.06c-2.19-2-4.62-4.1-6.95-6C3103.28,413.45,3103.44,413.1,3103.72,412.85Z"/><path class="cls-8" d="M3101.43,413.09a4.59,4.59,0,0,1,1-.32,1,1,0,0,1,1.23.37c1.42,2.4,2.86,5,4,7.47.23.47-.1.76-.49.94a4.74,4.74,0,0,1-1,.34.89.89,0,0,1-1.13-.38c-1.2-2.46-2.6-5.09-4-7.48C3100.76,413.57,3101,413.27,3101.43,413.09Z"/><path class="cls-16" d="M3567.81,239a.53.53,0,0,1,.62.11c1.54,1.84,2.71-.16,2.31,3.89-12.14,122-143.1,16.89-191.48-4.37-1.61-.7-1.81-2.09-1.05-3.62a5.66,5.66,0,0,1,.37-.53,3.8,3.8,0,0,1,4.48-1.22c43,19.9,174.94,122.62,181.3,8.35C3564.57,237.77,3566.26,240,3567.81,239Z"/><path class="cls-17" d="M3569,243.41a2,2,0,0,0,.41.3.68.68,0,0,0,1-.44,32.36,32.36,0,0,1,5.34-8.68c.37-.46.13-.68-.17-1a1.36,1.36,0,0,0-.4-.2c-.45-.12-.79-.2-1.17.26a40.72,40.72,0,0,0-5.37,8.38A1.08,1.08,0,0,0,3569,243.41Z"/><path class="cls-18" d="M3566,242.63a2.63,2.63,0,0,1-.75.15,1,1,0,0,1-1-.88,89,89,0,0,1-1.11-9.32c0-.56.46-.7.79-.77a3.61,3.61,0,0,1,.79-.09c.33,0,.83,0,.85.58a85.49,85.49,0,0,0,1,9.31A.91.91,0,0,1,3566,242.63Z"/><path class="cls-19" d="M3567.93,243.84a3.82,3.82,0,0,1-.94-.24,1.19,1.19,0,0,1-.77-1.27,42.47,42.47,0,0,1,2.18-9.34,1,1,0,0,1,1.09-.56,3.64,3.64,0,0,1,1,.16c.35.09.77.25.55.82a42.3,42.3,0,0,0-2.2,9.51C3568.72,243.53,3568.38,243.89,3567.93,243.84Z"/><path class="cls-9" d="M3322,245.83h-8.55v315h27.48a3.17,3.17,0,0,0,1.52-6L3322,543.74Z"/><path class="cls-9" d="M3213.66,245.83h8.55v315h-27.47a3.18,3.18,0,0,1-1.53-6l20.45-11.16Z"/><path class="cls-10" d="M3471.36,198.64c-2-14-17.76-23.43-35.3-21a40.43,40.43,0,0,0-5.73,1.24v0a81.52,81.52,0,0,0-.67-10.31,22.44,22.44,0,0,0,6.37-15.35c0-11.56-9.55-21.33-22.67-24.54a87.56,87.56,0,0,0-9-10.11,20.35,20.35,0,0,0-.18-3.81c-1.79-12.88-15.25-21.84-31-21.35,4.19-6.1,5.75-13.26,3.71-20-3.37-11.2-15.6-17.8-29.3-16.89-4.28-10.29-12.87-17.32-22.78-17.32-13.85,0-25.12,13.7-25.64,30.85a32.45,32.45,0,0,0-12.14-2.34c-16.14,0-29.22,11.49-29.22,25.66a22.16,22.16,0,0,0,.45,4.33,32.94,32.94,0,0,0-9.72-1.48c-14,0-25.69,8.65-28.54,20.2a40.14,40.14,0,0,0-21.35-6c-19.29,0-34.92,12.77-34.92,28.51a23.57,23.57,0,0,0,.6,5.26c-7.45,2.52-13.37,6.85-16.55,12.15a40.66,40.66,0,0,0-19-4.58c-13.74,0-25.62,6.48-31.32,15.91a40.9,40.9,0,0,0-4.31-.23c-18.17,0-33.1,11.33-34.77,25.81-1.18-.09-2.38-.15-3.6-.15-17,0-30.77,8.93-30.77,20S3037.85,233,3054.84,233a43.91,43.91,0,0,0,15-2.54,23.87,23.87,0,0,0-.14,2.54c0,15.75,15.63,28.51,34.92,28.51,14.8,0,27.45-7.52,32.53-18.13,12.55,10.21,31.31,16.71,52.29,16.71,20.3,0,38.53-6.09,51.06-15.74,12,13.69,33.77,22.86,58.7,22.86a95.27,95.27,0,0,0,27.58-4,92.56,92.56,0,0,0,39.66-2.35,38.17,38.17,0,0,0,16.15,3.49c9.68,0,18.35-3.43,24.23-8.86,5.88,5.43,14.55,8.86,24.23,8.86,17.72,0,32.08-11.48,32.08-25.66a22.26,22.26,0,0,0-6-14.95C3466.85,218.11,3472.74,208.55,3471.36,198.64Z"/><path class="cls-11" d="M3148.09,156c0-11,13.16-20,28.51-20s29.93,14.64,29.93,25.66"/><path class="cls-11" d="M3213.17,157.83c1.57-10.91,13.72-25.39,28.24-26.19,15.33-.85,27.76,7.25,26.2,18.16"/><path class="cls-11" d="M3358.76,174c2.4-7.42,13.2-10.57,23.54-7.23s17,16.37,14.57,23.79"/><path class="cls-11" d="M3397.42,191c3.42-7,14.76-14.11,24.7-11.49,10.5,2.76,17.11,10.91,13.69,17.92"/><path class="cls-15" d="M3284.45,212.71c3.3,8.79,2.61,17.17-1.52,18.72s-10.17-4.31-13.46-13.11"/><path class="cls-13" d="M3243,204.72c16.53,17.54,33.2,17.12,50,0"/></g><g id="Layer_7" data-name="Layer 7"><path class="cls-14" d="M4031.12,254.16c-1.39-3.31-2.48-1.14-4.51-2.52-.2-.13-.63-.13-.72,0-.92,1.47-3.77-.91-2.31,2.63,43.93,106.59,22.28,86.46,118.59,135.64.24.12.19.23.31.33,2.24,1.93,4.38,3.92,6.69,5.69.45.35.57.06.74-.31a1.36,1.36,0,0,0,.08-.47,1.41,1.41,0,0,0-.45-1.27c-1.85-1.55-3.74-3.1-5.56-4.7,0-.16.05-.32.08-.48a53.1,53.1,0,0,0,5.11,1.75c.49.14.58-.34.59-.73a7.63,7.63,0,0,0-.07-1.15,1.25,1.25,0,0,0-.69-1.11c-1.73-.58-3.44-1.15-5.13-1.83l-.15-.58c1.79-.24,3.55-.48,5.3-.89.42-.1.4-.65.33-1a6.41,6.41,0,0,0-.25-.93c-.12-.35-.37-.84-.8-.77-2.3.4-4.52.75-6.89.93C4049.14,337,4073.19,353.77,4031.12,254.16Z"/><path class="cls-5" d="M3730.12,416.1a1.16,1.16,0,0,1-.62.22c-2.05,0-3,.66-4.3-1.36-39.2-60.89-19.25-104.15,2.56-164.57.72-2,2-1.6,3.92-1.71a1.45,1.45,0,0,1,.65.16c1.52.92,2.91,1.25,2.18,3.22-22.2,59.52-40.42,100.65-2.8,160.69C3733,414.75,3731.38,415,3730.12,416.1Z"/><path class="cls-6" d="M3726.59,413.82a2.24,2.24,0,0,0-.52,0c-.49.1-.83.25-.75.73a72.11,72.11,0,0,1,.73,8.28c0,.48.37.58.86.63a2.07,2.07,0,0,0,.5,0c.49-.11.82-.26.81-.74a82.28,82.28,0,0,0-.67-8.27C3727.49,414,3727.1,413.86,3726.59,413.82Z"/><path class="cls-7" d="M3729.66,412.85a2.38,2.38,0,0,1,.62-.44,1.06,1.06,0,0,1,1.24.06c2.33,1.91,4.8,4,7,6,.4.36.19.71-.09,1a2.66,2.66,0,0,1-.63.45,1,1,0,0,1-1.19-.06c-2.2-2-4.63-4.1-7-6C3729.22,413.45,3729.38,413.1,3729.66,412.85Z"/><path class="cls-8" d="M3727.36,413.09a4.77,4.77,0,0,1,1-.32,1,1,0,0,1,1.24.37c1.41,2.4,2.85,5,4,7.47.22.47-.1.76-.5.94a4.65,4.65,0,0,1-1,.34.9.9,0,0,1-1.14-.38c-1.2-2.46-2.6-5.09-4-7.48C3726.69,413.57,3727,413.27,3727.36,413.09Z"/><path class="cls-9" d="M3947.93,245.83h-8.55v315h27.47a3.17,3.17,0,0,0,1.52-6l-20.44-11.16Z"/><path class="cls-9" d="M3839.59,245.83h8.56v315h-27.48a3.17,3.17,0,0,1-1.52-6l20.44-11.16Z"/><path class="cls-10" d="M4097.3,198.64c-2-14-17.77-23.43-35.31-21a40.43,40.43,0,0,0-5.73,1.24v0a83.43,83.43,0,0,0-.66-10.31,22.44,22.44,0,0,0,6.37-15.35c0-11.56-9.55-21.33-22.68-24.54a86.63,86.63,0,0,0-8.95-10.11,20.34,20.34,0,0,0-.17-3.81c-1.8-12.88-15.26-21.84-31-21.35,4.19-6.1,5.76-13.26,3.72-20-3.38-11.2-15.61-17.8-29.31-16.89-4.27-10.29-12.87-17.32-22.78-17.32-13.84,0-25.12,13.7-25.63,30.85A32.48,32.48,0,0,0,3913,67.65c-16.14,0-29.23,11.49-29.23,25.66a23,23,0,0,0,.45,4.33,32.82,32.82,0,0,0-9.71-1.48c-14,0-25.7,8.65-28.55,20.2a40.08,40.08,0,0,0-21.34-6c-19.29,0-34.93,12.77-34.93,28.51a24.17,24.17,0,0,0,.6,5.26c-7.45,2.52-13.37,6.85-16.55,12.15a40.62,40.62,0,0,0-19-4.58c-13.75,0-25.63,6.48-31.33,15.91a40.76,40.76,0,0,0-4.31-.23c-18.17,0-33.09,11.33-34.76,25.81-1.19-.09-2.39-.15-3.61-.15-17,0-30.76,8.93-30.76,20S3663.78,233,3680.77,233a44,44,0,0,0,15-2.54,23.88,23.88,0,0,0-.15,2.54c0,15.75,15.64,28.51,34.92,28.51,14.81,0,27.45-7.52,32.53-18.13,12.56,10.21,31.32,16.71,52.29,16.71,20.3,0,38.53-6.09,51.06-15.74,12,13.69,33.77,22.86,58.7,22.86a95.22,95.22,0,0,0,27.58-4,92.61,92.61,0,0,0,39.67-2.35,38.09,38.09,0,0,0,16.14,3.49c9.68,0,18.35-3.43,24.23-8.86,5.89,5.43,14.56,8.86,24.24,8.86,17.71,0,32.07-11.48,32.07-25.66a22.3,22.3,0,0,0-6-14.95C4092.78,218.11,4098.68,208.55,4097.3,198.64Z"/><path class="cls-11" d="M3774,156c0-11,13.16-20,28.51-20s29.94,14.64,29.94,25.66"/><path class="cls-11" d="M3839.11,157.83c1.56-10.91,13.72-25.39,28.23-26.19,15.33-.85,27.77,7.25,26.2,18.16"/><path class="cls-11" d="M3984.7,174c2.4-7.42,13.2-10.57,23.53-7.23s17,16.37,14.57,23.79"/><path class="cls-11" d="M4023.35,191c3.43-7,14.76-14.11,24.71-11.49,10.5,2.76,17.11,10.91,13.68,17.92"/><path class="cls-13" d="M3868.5,206.64c16.53,17.55,33.2,17.12,50,0"/></g><g id="Layer_8" data-name="Layer 8"><path class="cls-1" d="M4653.81,430.11a1.16,1.16,0,0,1-.66-.27c-1.2-1.31-3.11-1.57-1.45-3.74,49.91-65.27,28.05-108.7-3.89-173.74-1.06-2.16.53-2.53,2-3.71a1.33,1.33,0,0,1,.68-.24c2.12,0,3.4-.65,4.52,1.58,33.78,66.93,53.42,111.88,3.51,178.87C4656.84,431.08,4656.09,430.15,4653.81,430.11Z"/><path class="cls-2" d="M4653.94,426.28a1.85,1.85,0,0,0-.37-.31,1.14,1.14,0,0,0-1.34,0,78.68,78.68,0,0,0-7.81,6.19c-.43.37-.23.7.07,1a2.16,2.16,0,0,0,.4.32,1,1,0,0,0,1.25,0c2.45-2.09,5.06-4.24,7.68-6.21A.61.61,0,0,0,4653.94,426.28Z"/><path class="cls-3" d="M4657,427.61a3.11,3.11,0,0,1,.91.11c.46.09.82.31.73.83-.49,2.9-.91,6-1.15,8.93-.05.53-.48.66-.93.65a2.91,2.91,0,0,1-.88-.11c-.44-.1-.86-.33-.82-.86.2-2.91.6-6,1.06-8.93C4656,427.7,4656.55,427.59,4657,427.61Z"/><path class="cls-4" d="M4655.29,426.32a4.35,4.35,0,0,1,1,.41c.41.22.65.54.33,1a79.09,79.09,0,0,0-4.66,7.94.91.91,0,0,1-1.2.35,4.59,4.59,0,0,1-1-.43c-.41-.21-.75-.55-.5-1.05a55.42,55.42,0,0,1,4.67-7.91A1.16,1.16,0,0,1,4655.29,426.32Z"/><path class="cls-5" d="M4356.37,416.1a1.16,1.16,0,0,1-.62.22c-2.05,0-3,.66-4.3-1.36-39.2-60.89-19.25-104.15,2.56-164.57.72-2,2-1.6,3.92-1.71a1.45,1.45,0,0,1,.65.16c1.52.92,2.91,1.25,2.17,3.22-22.19,59.52-40.42,100.65-2.79,160.69C4359.21,414.75,4357.63,415,4356.37,416.1Z"/><path class="cls-6" d="M4352.84,413.82a2.24,2.24,0,0,0-.52,0c-.49.1-.83.25-.75.73a72.11,72.11,0,0,1,.73,8.28c0,.48.37.58.86.63a2.07,2.07,0,0,0,.5,0c.49-.11.82-.26.81-.74a82.28,82.28,0,0,0-.67-8.27C4353.74,414,4353.34,413.86,4352.84,413.82Z"/><path class="cls-7" d="M4355.9,412.85a2.63,2.63,0,0,1,.63-.44,1.06,1.06,0,0,1,1.24.06c2.33,1.91,4.8,4,7,6,.4.36.19.71-.09,1a2.66,2.66,0,0,1-.63.45,1,1,0,0,1-1.19-.06c-2.2-2-4.63-4.1-7-6C4355.46,413.45,4355.63,413.1,4355.9,412.85Z"/><path class="cls-8" d="M4353.61,413.09a4.77,4.77,0,0,1,1-.32,1,1,0,0,1,1.23.37c1.42,2.4,2.86,5,4,7.47.23.47-.09.76-.49.94a4.65,4.65,0,0,1-1,.34.9.9,0,0,1-1.14-.38c-1.2-2.46-2.6-5.09-4.05-7.48C4352.94,413.57,4353.2,413.27,4353.61,413.09Z"/><path class="cls-9" d="M4574.18,245.83h-8.55v315h27.47a3.17,3.17,0,0,0,1.52-6l-20.44-11.16Z"/><path class="cls-9" d="M4465.84,245.83h8.56v315h-27.48a3.17,3.17,0,0,1-1.52-6l20.44-11.16Z"/><path class="cls-10" d="M4723.55,198.64c-2-14-17.77-23.43-35.31-21a40.43,40.43,0,0,0-5.73,1.24v0a83.43,83.43,0,0,0-.66-10.31,22.44,22.44,0,0,0,6.37-15.35c0-11.56-9.55-21.33-22.68-24.54a87.56,87.56,0,0,0-8.95-10.11,21.23,21.23,0,0,0-.17-3.81c-1.8-12.88-15.26-21.84-31-21.35,4.19-6.1,5.76-13.26,3.72-20-3.38-11.2-15.61-17.8-29.31-16.89-4.27-10.29-12.87-17.32-22.78-17.32-13.84,0-25.12,13.7-25.63,30.85a32.54,32.54,0,0,0-12.15-2.34c-16.13,0-29.22,11.49-29.22,25.66a23,23,0,0,0,.45,4.33,32.82,32.82,0,0,0-9.71-1.48c-14,0-25.7,8.65-28.55,20.2a40.09,40.09,0,0,0-21.35-6c-19.28,0-34.92,12.77-34.92,28.51a23.57,23.57,0,0,0,.6,5.26c-7.45,2.52-13.37,6.85-16.55,12.15a40.65,40.65,0,0,0-19-4.58c-13.75,0-25.63,6.48-31.33,15.91a40.76,40.76,0,0,0-4.31-.23c-18.17,0-33.1,11.33-34.76,25.81-1.19-.09-2.39-.15-3.61-.15-17,0-30.77,8.93-30.77,20S4290,233,4307,233a44,44,0,0,0,15-2.54,21.51,21.51,0,0,0-.15,2.54c0,15.75,15.64,28.51,34.92,28.51,14.81,0,27.45-7.52,32.53-18.13,12.55,10.21,31.31,16.71,52.29,16.71,20.3,0,38.53-6.09,51.06-15.74,12,13.69,33.77,22.86,58.7,22.86a95.22,95.22,0,0,0,27.58-4,92.61,92.61,0,0,0,39.67-2.35,38.09,38.09,0,0,0,16.14,3.49c9.68,0,18.35-3.43,24.23-8.86,5.88,5.43,14.56,8.86,24.24,8.86,17.71,0,32.07-11.48,32.07-25.66a22.3,22.3,0,0,0-6-14.95C4719,218.11,4724.93,208.55,4723.55,198.64Z"/><path class="cls-11" d="M4400.27,156c0-11,13.16-20,28.51-20s29.94,14.64,29.94,25.66"/><path class="cls-11" d="M4465.36,157.83c1.56-10.91,13.72-25.39,28.23-26.19,15.33-.85,27.77,7.25,26.2,18.16"/><path class="cls-11" d="M4611,174c2.4-7.42,13.2-10.57,23.53-7.23s17,16.37,14.57,23.79"/><path class="cls-11" d="M4649.6,191c3.43-7,14.76-14.11,24.71-11.49,10.5,2.76,17.11,10.91,13.68,17.92"/><path class="cls-13" d="M4522.45,225.2q18.66-6,21-12"/><path class="cls-20" d="M4538.41,208.14c3.93-1.48,7.46-.31,10.8,2.08"/></g></svg>
